<?xml version="1.0" encoding="utf-8"?>
<!-- Generator: Adobe Illustrator 21.0.0, SVG Export Plug-In . SVG Version: 6.00 Build 0)  -->
<!DOCTYPE svg PUBLIC "-//W3C//DTD SVG 1.1//EN" "http://www.w3.org/Graphics/SVG/1.1/DTD/svg11.dtd">
<svg version="1.1" id="Layer_1" xmlns="http://www.w3.org/2000/svg" xmlns:xlink="http://www.w3.org/1999/xlink" x="0px" y="0px"
	 viewBox="0 0 600 600" style="enable-background:new 0 0 600 600;" xml:space="preserve">
<style type="text/css">
	.st0{fill:#FFFFFF;}
</style>
<g>
	<path class="st0" d="M527.6,146.6l68.4-5.9l-11.6-36.4l-46.7,8.7l31.7-30.3L548.9,50l-47.6,54.7c-1.7-0.3-3.4-0.4-5.1-0.4
		c-8.5,0-16.2,3.3-22,8.5c-49.7-52.5-120-85.2-197.8-85.2C126.2,27.5,4,149.8,4,300c0,150.2,122.2,272.5,272.5,272.5
		S548.9,450.2,548.9,300c0-49-13-95.1-35.8-134.9C520,161,525.2,154.4,527.6,146.6z M462.9,424.1H90C66.3,388.6,52.4,345.9,52.4,300
		c0-4.2,0.1-8.4,0.4-12.6h447.4c0.2,4.2,0.4,8.4,0.4,12.6C500.5,345.9,486.7,388.6,462.9,424.1z"/>
	<path class="st0" d="M151,312.5c7.7,3,15.2,6.4,22.5,10.1c-17.3,4-30.2,19.5-30.2,38c0,21.5,17.5,39,39,39c21.5,0,39-17.5,39-39
		c0-1.9-0.2-3.8-0.5-5.6c4.6,4,9,8.2,13.2,12.6C223.6,331.8,188.7,308.2,151,312.5z"/>
	<path class="st0" d="M379.4,322.6c7.3-3.8,14.8-7.1,22.5-10.1c-37.7-4.3-72.6,19.3-83.1,55c4.2-4.4,8.7-8.6,13.2-12.6
		c-0.3,1.8-0.5,3.7-0.5,5.6c0,21.5,17.5,39,39,39c21.5,0,39-17.5,39-39C409.6,342,396.7,326.6,379.4,322.6z"/>
</g>
</svg>
